<svg width="360" height="48" viewBox="0 0 360 48" fill="none" xmlns="http://www.w3.org/2000/svg">
<path d="M342.786 48C339.181 48 336.096 47.2891 333.53 45.8672C330.963 44.4309 328.995 42.4345 327.626 39.878C326.256 37.3071 325.571 34.3268 325.571 30.9372C325.571 27.5476 326.256 24.5746 327.626 22.018C328.995 19.4471 330.963 17.4507 333.53 16.0288C336.096 14.5925 339.181 13.8744 342.786 13.8744C346.39 13.8744 349.475 14.5925 352.041 16.0288C354.608 17.4507 356.576 19.4471 357.945 22.018C359.315 24.5746 360 27.5476 360 30.9372C360 34.3268 359.315 37.3071 357.945 39.878C356.576 42.4345 354.608 44.4309 352.041 45.8672C349.475 47.2891 346.39 48 342.786 48ZM342.872 39.2101C343.881 39.2101 344.754 38.8726 345.489 38.1975C346.224 37.5225 346.794 36.5602 347.197 35.3106C347.601 34.0611 347.803 32.5746 347.803 30.851C347.803 29.1132 347.601 27.6266 347.197 26.3914C346.794 25.1419 346.224 24.1796 345.489 23.5045C344.754 22.8295 343.881 22.492 342.872 22.492C341.805 22.492 340.89 22.8295 340.126 23.5045C339.361 24.1796 338.778 25.1419 338.374 26.3914C337.97 27.6266 337.768 29.1132 337.768 30.851C337.768 32.5746 337.97 34.0611 338.374 35.3106C338.778 36.5602 339.361 37.5225 340.126 38.1975C340.89 38.8726 341.805 39.2101 342.872 39.2101Z" fill="white"/>
<path d="M304.431 48C300.884 48 297.827 47.325 295.261 45.9749C292.709 44.6105 290.741 42.6571 289.357 40.115C287.988 37.5584 287.303 34.4992 287.303 30.9372C287.303 27.5189 287.995 24.5315 289.379 21.9749C290.763 19.4184 292.716 17.4291 295.239 16.0072C297.763 14.5853 300.74 13.8744 304.171 13.8744C306.68 13.8744 308.95 14.2622 310.983 15.0378C313.016 15.8133 314.753 16.9408 316.195 18.4202C317.637 19.8852 318.747 21.6661 319.525 23.7631C320.304 25.86 320.693 28.2227 320.693 30.851V33.6087H291.022V27.0593H309.707C309.693 26.1114 309.448 25.2783 308.972 24.5602C308.511 23.8277 307.883 23.2604 307.091 22.8582C306.312 22.4417 305.425 22.2335 304.431 22.2335C303.465 22.2335 302.578 22.4417 301.771 22.8582C300.963 23.2604 300.314 23.8205 299.824 24.5387C299.348 25.2568 299.096 26.097 299.067 27.0593V34.1257C299.067 35.1886 299.291 36.1365 299.738 36.9695C300.185 37.8026 300.826 38.4561 301.662 38.93C302.499 39.404 303.508 39.641 304.69 39.641C305.512 39.641 306.262 39.5261 306.939 39.2963C307.631 39.0665 308.222 38.7361 308.712 38.3053C309.203 37.86 309.563 37.3286 309.794 36.711H320.693C320.318 39.009 319.432 41.0054 318.033 42.7002C316.635 44.3807 314.782 45.6877 312.475 46.6212C310.183 47.5404 307.501 48 304.431 48Z" fill="white"/>
<path d="M260.068 47.8276C257.704 47.8276 255.527 47.21 253.537 45.9748C251.562 44.7396 249.976 42.8653 248.78 40.3518C247.597 37.8384 247.006 34.6714 247.006 30.8509C247.006 26.8581 247.626 23.6122 248.866 21.1131C250.12 18.614 251.735 16.7827 253.71 15.6194C255.7 14.456 257.791 13.8743 259.982 13.8743C261.626 13.8743 263.067 14.1615 264.307 14.7361C265.547 15.2962 266.585 16.0502 267.421 16.9982C268.257 17.9317 268.892 18.9587 269.324 20.079H269.497V3.27466H281.435V47.3967H269.584V41.9676H269.324C268.863 43.0879 268.2 44.0933 267.335 44.9838C266.484 45.8599 265.446 46.5565 264.221 47.0736C263.01 47.5763 261.626 47.8276 260.068 47.8276ZM264.48 38.693C265.576 38.693 266.513 38.377 267.292 37.745C268.084 37.0987 268.69 36.1939 269.108 35.0305C269.541 33.8527 269.757 32.4596 269.757 30.8509C269.757 29.2136 269.541 27.8132 269.108 26.6499C268.69 25.4721 268.084 24.5745 267.292 23.9569C266.513 23.3249 265.576 23.0089 264.48 23.0089C263.384 23.0089 262.447 23.3249 261.669 23.9569C260.905 24.5745 260.314 25.4721 259.895 26.6499C259.492 27.8132 259.29 29.2136 259.29 30.8509C259.29 32.4883 259.492 33.8958 259.895 35.0736C260.314 36.2369 260.905 37.1346 261.669 37.7666C262.447 38.3842 263.384 38.693 264.48 38.693Z" fill="white"/>
<path d="M228.807 47.3968V14.3052H240.744V47.3968H228.807ZM234.775 10.8582C233.161 10.8582 231.777 10.3267 230.623 9.26391C229.47 8.20107 228.893 6.9228 228.893 5.42908C228.893 3.93537 229.47 2.65709 230.623 1.59425C231.777 0.531417 233.161 0 234.775 0C236.405 0 237.789 0.531417 238.928 1.59425C240.081 2.65709 240.658 3.93537 240.658 5.42908C240.658 6.9228 240.081 8.20107 238.928 9.26391C237.789 10.3267 236.405 10.8582 234.775 10.8582Z" fill="white"/>
<path d="M224.193 14.3053L213.034 47.3968H199.194L188.035 14.3053H200.578L205.941 36.194H206.287L211.65 14.3053H224.193Z" fill="white"/>
<path d="M150.112 12.9264V3.27466H188.607V12.9264H175.285V47.3967H163.434V12.9264H150.112Z" fill="white"/>
<path d="M143.174 25.3357V34.298H122.413V25.3357H143.174Z" fill="white"/>
<path d="M102.148 32.9193V14.3053H114.085V47.3969H102.753V41.106H102.407C101.687 43.2173 100.425 44.869 98.6229 46.0611C96.8207 47.2389 94.6797 47.8277 92.1999 47.8277C89.8787 47.8277 87.8459 47.2963 86.1014 46.2335C84.3713 45.1706 83.0233 43.7056 82.0573 41.8385C81.1058 39.9714 80.6228 37.8313 80.6084 35.4184V14.3053H92.546V32.9193C92.5604 34.5566 92.9785 35.8421 93.8003 36.7757C94.6365 37.7092 95.8043 38.176 97.3037 38.176C98.2985 38.176 99.1563 37.9678 99.8772 37.5513C100.612 37.1204 101.175 36.5171 101.564 35.7416C101.968 34.9516 102.162 34.0109 102.148 32.9193Z" fill="white"/>
<path d="M57.332 48C53.7276 48 50.6423 47.2891 48.076 45.8672C45.5098 44.4309 43.5418 42.4345 42.1721 39.878C40.8025 37.3071 40.1177 34.3268 40.1177 30.9372C40.1177 27.5476 40.8025 24.5746 42.1721 22.018C43.5418 19.4471 45.5098 17.4507 48.076 16.0288C50.6423 14.5925 53.7276 13.8744 57.332 13.8744C60.9363 13.8744 64.0216 14.5925 66.5879 16.0288C69.1542 17.4507 71.1222 19.4471 72.4918 22.018C73.8614 24.5746 74.5463 27.5476 74.5463 30.9372C74.5463 34.3268 73.8614 37.3071 72.4918 39.878C71.1222 42.4345 69.1542 44.4309 66.5879 45.8672C64.0216 47.2891 60.9363 48 57.332 48Z" fill="white"/>
<path d="M0 3.27466H13.4081L22.0585 21.1992H22.4045L31.0549 3.27466H44.4631L28.2003 33.5224V47.3967H16.2628V33.5224L0 3.27466Z" fill="white"/>
<path d="M69.3442 31.5L51.6393 41.8923V21.1077L69.3442 31.5Z" fill="#FB6231"/>
</svg>
