<svg>
  <symbol 
    id="logo-white" 
    width="240" 
    height="32" 
    viewBox="0 0 240 32" 
    fill="none" 
    xmlns="http://www.w3.org/2000/svg">
    <path d="M228.524 32C226.121 32 224.064 31.526 222.353 30.578C220.642 29.6205 219.33 28.2896 218.417 26.5852C217.504 24.8713 217.048 22.8845 217.048 20.6247C217.048 18.365 217.504 16.383 218.417 14.6786C219.33 12.9647 220.642 11.6337 222.353 10.6858C224.064 9.72827 226.121 9.24951 228.524 9.24951C230.927 9.24951 232.984 9.72827 234.694 10.6858C236.405 11.6337 237.717 12.9647 238.63 14.6786C239.543 16.383 240 18.365 240 20.6247C240 22.8845 239.543 24.8713 238.63 26.5852C237.717 28.2896 236.405 29.6205 234.694 30.578C232.984 31.526 230.927 32 228.524 32ZM228.581 26.14C229.254 26.14 229.836 25.915 230.326 25.4649C230.816 25.0149 231.196 24.3734 231.465 23.5403C231.734 22.7073 231.869 21.7163 231.869 20.5673C231.869 19.4087 231.734 18.4177 231.465 17.5942C231.196 16.7612 230.816 16.1196 230.326 15.6696C229.836 15.2196 229.254 14.9946 228.581 14.9946C227.87 14.9946 227.26 15.2196 226.75 15.6696C226.241 16.1196 225.852 16.7612 225.583 17.5942C225.314 18.4177 225.179 19.4087 225.179 20.5673C225.179 21.7163 225.314 22.7073 225.583 23.5403C225.852 24.3734 226.241 25.0149 226.75 25.4649C227.26 25.915 227.87 26.14 228.581 26.14Z" fill="white"/>
    <path d="M202.954 32C200.589 32 198.552 31.5499 196.841 30.6499C195.139 29.7402 193.828 28.438 192.905 26.7432C191.992 25.0389 191.535 22.9994 191.535 20.6247C191.535 18.3459 191.997 16.3542 192.919 14.6499C193.842 12.9455 195.144 11.6193 196.826 10.6714C198.508 9.72348 200.493 9.24951 202.781 9.24951C204.453 9.24951 205.967 9.50804 207.322 10.0251C208.677 10.5421 209.836 11.2938 210.797 12.28C211.758 13.2567 212.498 14.444 213.017 15.842C213.536 17.2399 213.796 18.815 213.796 20.5673V22.4057H194.015V18.0395H206.472C206.462 17.4075 206.298 16.8521 205.981 16.3734C205.674 15.8851 205.256 15.5068 204.727 15.2387C204.208 14.9611 203.617 14.8222 202.954 14.8222C202.31 14.8222 201.719 14.9611 201.18 15.2387C200.642 15.5068 200.21 15.8803 199.883 16.359C199.566 16.8378 199.397 17.3979 199.378 18.0395V22.7504C199.378 23.459 199.527 24.0909 199.825 24.6463C200.123 25.2016 200.551 25.6373 201.108 25.9533C201.666 26.2693 202.339 26.4272 203.127 26.4272C203.675 26.4272 204.174 26.3506 204.626 26.1974C205.087 26.0442 205.482 25.824 205.808 25.5368C206.135 25.2399 206.375 24.8857 206.529 24.4739H213.796C213.546 26.0059 212.955 27.3369 212.022 28.4667C211.09 29.587 209.855 30.4584 208.317 31.0807C206.789 31.6935 205.001 32 202.954 32Z" fill="white"/>
    <path d="M173.379 31.8851C171.803 31.8851 170.351 31.4733 169.025 30.6499C167.708 29.8264 166.651 28.5769 165.853 26.9012C165.065 25.2256 164.671 23.1143 164.671 20.5673C164.671 17.9054 165.084 15.7414 165.911 14.0754C166.747 12.4093 167.823 11.1885 169.14 10.4129C170.467 9.63732 171.86 9.24953 173.321 9.24953C174.417 9.24953 175.378 9.44103 176.205 9.82404C177.031 10.1975 177.723 10.7002 178.281 11.3321C178.838 11.9545 179.261 12.6391 179.55 13.386H179.665V2.18311H187.623V31.5978H179.723V27.9784H179.55C179.242 28.7253 178.8 29.3955 178.223 29.9892C177.656 30.5733 176.964 31.0377 176.147 31.3824C175.34 31.7175 174.417 31.8851 173.379 31.8851ZM176.32 25.7953C177.051 25.7953 177.675 25.5847 178.194 25.1633C178.723 24.7325 179.127 24.1292 179.405 23.3537C179.694 22.5685 179.838 21.6397 179.838 20.5673C179.838 19.4757 179.694 18.5422 179.405 17.7666C179.127 16.9814 178.723 16.383 178.194 15.9713C177.675 15.5499 177.051 15.3393 176.32 15.3393C175.59 15.3393 174.965 15.5499 174.446 15.9713C173.936 16.383 173.542 16.9814 173.264 17.7666C172.995 18.5422 172.86 19.4757 172.86 20.5673C172.86 21.6589 172.995 22.5972 173.264 23.3824C173.542 24.158 173.936 24.7564 174.446 25.1777C174.965 25.5894 175.59 25.7953 176.32 25.7953Z" fill="white"/>
    <path d="M152.538 31.5978V9.5368H160.496V31.5978H152.538ZM156.517 7.23878C155.441 7.23878 154.518 6.8845 153.749 6.17594C152.98 5.46738 152.596 4.6152 152.596 3.61939C152.596 2.62358 152.98 1.77139 153.749 1.06283C154.518 0.354278 155.441 0 156.517 0C157.603 0 158.526 0.354278 159.285 1.06283C160.054 1.77139 160.439 2.62358 160.439 3.61939C160.439 4.6152 160.054 5.46738 159.285 6.17594C158.526 6.8845 157.603 7.23878 156.517 7.23878Z" fill="white"/>
    <path d="M149.462 9.53687L142.023 31.5979H132.796L125.356 9.53687H133.719L137.294 24.1293H137.525L141.1 9.53687H149.462Z" fill="white"/>
    <path d="M100.075 8.61757V2.18311H125.738V8.61757H116.856V31.5978H108.956V8.61757H100.075Z" fill="white"/>
    <path d="M95.4493 16.8905V22.8654H81.6086V16.8905H95.4493Z" fill="white"/>
    <path d="M68.0987 21.9462V9.53687H76.057V31.5979H68.5024V27.404H68.2717C67.7911 28.8115 66.9501 29.9127 65.7487 30.7074C64.5472 31.4926 63.1199 31.8852 61.4667 31.8852C59.9192 31.8852 58.564 31.5309 57.401 30.8223C56.2476 30.1138 55.349 29.1371 54.705 27.8923C54.0706 26.6476 53.7486 25.2209 53.739 23.6123V9.53687H61.6974V21.9462C61.707 23.0378 61.9857 23.8947 62.5336 24.5171C63.0911 25.1395 63.8696 25.4507 64.8692 25.4507C65.5324 25.4507 66.1043 25.3118 66.5849 25.0342C67.075 24.7469 67.4499 24.3448 67.7094 23.8277C67.9785 23.3011 68.1083 22.6739 68.0987 21.9462Z" fill="white"/>
    <path d="M38.2213 32C35.8184 32 33.7616 31.526 32.0507 30.578C30.3398 29.6205 29.0279 28.2896 28.1148 26.5852C27.2017 24.8713 26.7451 22.8845 26.7451 20.6247C26.7451 18.365 27.2017 16.383 28.1148 14.6786C29.0279 12.9647 30.3398 11.6337 32.0507 10.6858C33.7616 9.72827 35.8184 9.24951 38.2213 9.24951C40.6242 9.24951 42.6811 9.72827 44.3919 10.6858C46.1028 11.6337 47.4148 12.9647 48.3279 14.6786C49.241 16.383 49.6975 18.365 49.6975 20.6247C49.6975 22.8845 49.241 24.8713 48.3279 26.5852C47.4148 28.2896 46.1028 29.6205 44.3919 30.578C42.6811 31.526 40.6242 32 38.2213 32Z" fill="white"/>
    <path d="M0 2.18311H8.93875L14.7057 14.1328H14.9364L20.7033 2.18311H29.642L18.8002 22.3483V31.5978H10.8418V22.3483L0 2.18311Z" fill="white"/>
    <path d="M46.2295 21L34.4262 27.9282V14.0718L46.2295 21Z" fill="#FB6231"/>
  </symbol>

  <symbol 
    id="logo-orange" 
    width="240" 
    height="32" 
    viewBox="0 0 240 32" 
    fill="none" 
    xmlns="http://www.w3.org/2000/svg">
    <path d="M228.524 32C226.121 32 224.064 31.526 222.353 30.578C220.642 29.6205 219.33 28.2896 218.417 26.5852C217.504 24.8713 217.048 22.8845 217.048 20.6247C217.048 18.365 217.504 16.383 218.417 14.6786C219.33 12.9647 220.642 11.6337 222.353 10.6858C224.064 9.72827 226.121 9.24951 228.524 9.24951C230.927 9.24951 232.984 9.72827 234.694 10.6858C236.405 11.6337 237.717 12.9647 238.63 14.6786C239.543 16.383 240 18.365 240 20.6247C240 22.8845 239.543 24.8713 238.63 26.5852C237.717 28.2896 236.405 29.6205 234.694 30.578C232.984 31.526 230.927 32 228.524 32ZM228.581 26.14C229.254 26.14 229.836 25.915 230.326 25.4649C230.816 25.0149 231.196 24.3734 231.465 23.5403C231.734 22.7073 231.869 21.7163 231.869 20.5673C231.869 19.4087 231.734 18.4177 231.465 17.5942C231.196 16.7612 230.816 16.1196 230.326 15.6696C229.836 15.2196 229.254 14.9946 228.581 14.9946C227.87 14.9946 227.26 15.2196 226.75 15.6696C226.241 16.1196 225.852 16.7612 225.583 17.5942C225.314 18.4177 225.179 19.4087 225.179 20.5673C225.179 21.7163 225.314 22.7073 225.583 23.5403C225.852 24.3734 226.241 25.0149 226.75 25.4649C227.26 25.915 227.87 26.14 228.581 26.14Z" fill="#FB6231"/>
    <path d="M202.954 32C200.589 32 198.552 31.5499 196.841 30.6499C195.139 29.7402 193.828 28.438 192.905 26.7432C191.992 25.0389 191.535 22.9994 191.535 20.6247C191.535 18.3459 191.997 16.3542 192.919 14.6499C193.842 12.9455 195.144 11.6193 196.826 10.6714C198.508 9.72348 200.493 9.24951 202.781 9.24951C204.453 9.24951 205.967 9.50804 207.322 10.0251C208.677 10.5421 209.836 11.2938 210.797 12.28C211.758 13.2567 212.498 14.444 213.017 15.842C213.536 17.2399 213.796 18.815 213.796 20.5673V22.4057H194.015V18.0395H206.472C206.462 17.4075 206.298 16.8521 205.981 16.3734C205.674 15.8851 205.256 15.5068 204.727 15.2387C204.208 14.9611 203.617 14.8222 202.954 14.8222C202.31 14.8222 201.719 14.9611 201.18 15.2387C200.642 15.5068 200.21 15.8803 199.883 16.359C199.566 16.8378 199.397 17.3979 199.378 18.0395V22.7504C199.378 23.459 199.527 24.0909 199.825 24.6463C200.123 25.2016 200.551 25.6373 201.108 25.9533C201.666 26.2693 202.339 26.4272 203.127 26.4272C203.675 26.4272 204.174 26.3506 204.626 26.1974C205.087 26.0442 205.482 25.824 205.808 25.5368C206.135 25.2399 206.375 24.8857 206.529 24.4739H213.796C213.546 26.0059 212.955 27.3369 212.022 28.4667C211.09 29.587 209.855 30.4584 208.317 31.0807C206.789 31.6935 205.001 32 202.954 32Z" fill="#FB6231"/>
    <path d="M173.379 31.8851C171.803 31.8851 170.351 31.4733 169.025 30.6499C167.708 29.8264 166.651 28.5769 165.853 26.9012C165.065 25.2256 164.671 23.1143 164.671 20.5673C164.671 17.9054 165.084 15.7414 165.911 14.0754C166.747 12.4093 167.824 11.1885 169.14 10.4129C170.467 9.63732 171.86 9.24953 173.321 9.24953C174.417 9.24953 175.378 9.44103 176.205 9.82404C177.031 10.1975 177.724 10.7002 178.281 11.3321C178.838 11.9545 179.261 12.6391 179.55 13.386H179.665V2.18311H187.623V31.5978H179.723V27.9784H179.55C179.242 28.7253 178.8 29.3955 178.223 29.9892C177.656 30.5733 176.964 31.0377 176.147 31.3824C175.34 31.7175 174.417 31.8851 173.379 31.8851ZM176.32 25.7953C177.051 25.7953 177.675 25.5847 178.194 25.1633C178.723 24.7325 179.127 24.1292 179.406 23.3537C179.694 22.5685 179.838 21.6397 179.838 20.5673C179.838 19.4757 179.694 18.5422 179.406 17.7666C179.127 16.9814 178.723 16.383 178.194 15.9713C177.675 15.5499 177.051 15.3393 176.32 15.3393C175.59 15.3393 174.965 15.5499 174.446 15.9713C173.937 16.383 173.542 16.9814 173.264 17.7666C172.995 18.5422 172.86 19.4757 172.86 20.5673C172.86 21.6589 172.995 22.5972 173.264 23.3824C173.542 24.158 173.937 24.7564 174.446 25.1777C174.965 25.5894 175.59 25.7953 176.32 25.7953Z" fill="#FB6231"/>
    <path d="M152.538 31.5978V9.5368H160.496V31.5978H152.538ZM156.517 7.23878C155.441 7.23878 154.518 6.8845 153.749 6.17594C152.98 5.46738 152.595 4.6152 152.595 3.61939C152.595 2.62358 152.98 1.77139 153.749 1.06283C154.518 0.354278 155.441 0 156.517 0C157.603 0 158.526 0.354278 159.285 1.06283C160.054 1.77139 160.439 2.62358 160.439 3.61939C160.439 4.6152 160.054 5.46738 159.285 6.17594C158.526 6.8845 157.603 7.23878 156.517 7.23878Z" fill="#FB6231"/>
    <path d="M149.462 9.53687L142.023 31.5979H132.796L125.357 9.53687H133.719L137.294 24.1293H137.525L141.1 9.53687H149.462Z" fill="#FB6231"/>
    <path d="M100.075 8.61757V2.18311H125.738V8.61757H116.857V31.5978H108.956V8.61757H100.075Z" fill="#FB6231"/>
    <path d="M95.4494 16.8905V22.8654H81.6087V16.8905H95.4494Z" fill="#FB6231"/>
    <path d="M68.0987 21.9462V9.53687H76.0571V31.5979H68.5024V27.404H68.2717C67.7911 28.8115 66.9501 29.9127 65.7487 30.7074C64.5472 31.4926 63.1199 31.8852 61.4667 31.8852C59.9193 31.8852 58.564 31.5309 57.401 30.8223C56.2476 30.1138 55.349 29.1371 54.705 27.8923C54.0706 26.6476 53.7486 25.2209 53.739 23.6123V9.53687H61.6974V21.9462C61.707 23.0378 61.9857 23.8947 62.5336 24.5171C63.0911 25.1395 63.8696 25.4507 64.8692 25.4507C65.5324 25.4507 66.1043 25.3118 66.5849 25.0342C67.0751 24.7469 67.4499 24.3448 67.7094 23.8277C67.9786 23.3011 68.1083 22.6739 68.0987 21.9462Z" fill="#FB6231"/>
    <path d="M38.2214 32C35.8185 32 33.7616 31.526 32.0507 30.578C30.3399 29.6205 29.0279 28.2896 28.1148 26.5852C27.2017 24.8713 26.7452 22.8845 26.7452 20.6247C26.7452 18.365 27.2017 16.383 28.1148 14.6786C29.0279 12.9647 30.3399 11.6337 32.0507 10.6858C33.7616 9.72827 35.8185 9.24951 38.2214 9.24951C40.6242 9.24951 42.6811 9.72827 44.392 10.6858C46.1028 11.6337 47.4148 12.9647 48.3279 14.6786C49.241 16.383 49.6976 18.365 49.6976 20.6247C49.6976 22.8845 49.241 24.8713 48.3279 26.5852C47.4148 28.2896 46.1028 29.6205 44.392 30.578C42.6811 31.526 40.6242 32 38.2214 32Z" fill="#FB6231"/>
    <path d="M0 2.18311H8.93875L14.7057 14.1328H14.9364L20.7033 2.18311H29.642L18.8002 22.3483V31.5978H10.8418V22.3483L0 2.18311Z" fill="#FB6231"/>
    <path d="M46.2295 21L34.4262 27.9282V14.0718L46.2295 21Z" fill="white"/>
  </symbol>

  <symbol 
    id="star-ob"
    xmlns="http://www.w3.org/2000/svg" 
    width="20" 
    height="20" 
    viewBox="0 0 20 20" 
    fill="none">
    <path d="M11.4417 2.92495L12.9084 5.85828C13.1084 6.26662 13.6417 6.65828 14.0917 6.73328L16.75 7.17495C18.45 7.45828 18.85 8.69162 17.625 9.90828L15.5584 11.975C15.2084 12.325 15.0167 13 15.125 13.4833L15.7167 16.0416C16.1834 18.0666 15.1084 18.85 13.3167 17.7916L10.825 16.3166C10.375 16.05 9.63338 16.05 9.17505 16.3166L6.68338 17.7916C4.90005 18.85 3.81671 18.0583 4.28338 16.0416L4.87505 13.4833C4.98338 13 4.79171 12.325 4.44171 11.975L2.37505 9.90828C1.15838 8.69162 1.55005 7.45828 3.25005 7.17495L5.90838 6.73328C6.35005 6.65828 6.88338 6.26662 7.08338 5.85828L8.55005 2.92495C9.35005 1.33328 10.65 1.33328 11.4417 2.92495Z" stroke="#292D32" stroke-linecap="round" stroke-linejoin="round"/>
  </symbol>

  <symbol 
    id="star-ow"
    xmlns="http://www.w3.org/2000/svg" 
    width="20" 
    height="20" 
    viewBox="0 0 20 20" 
    fill="none">
    <path d="M11.4416 2.92495L12.9083 5.85828C13.1083 6.26662 13.6416 6.65828 14.0916 6.73328L16.7499 7.17495C18.4499 7.45828 18.8499 8.69162 17.6249 9.90828L15.5583 11.975C15.2083 12.325 15.0166 13 15.1249 13.4833L15.7166 16.0416C16.1833 18.0666 15.1083 18.85 13.3166 17.7916L10.8249 16.3166C10.3749 16.05 9.63326 16.05 9.17492 16.3166L6.68326 17.7916C4.89992 18.85 3.81659 18.0583 4.28326 16.0416L4.87492 13.4833C4.98326 13 4.79159 12.325 4.44159 11.975L2.37492 9.90828C1.15826 8.69162 1.54992 7.45828 3.24992 7.17495L5.90826 6.73328C6.34992 6.65828 6.88326 6.26662 7.08326 5.85828L8.54992 2.92495C9.34992 1.33328 10.6499 1.33328 11.4416 2.92495Z" stroke="white" stroke-linecap="round" stroke-linejoin="round"/>
  </symbol>

  <symbol 
    id="star"
    xmlns="http://www.w3.org/2000/svg" 
    width="20" 
    height="20" 
    viewBox="0 0 20 20" 
    fill="none">
    <path d="M11.4417 2.92501L12.9083 5.85835C13.1083 6.26668 13.6417 6.65835 14.0917 6.73335L16.75 7.17501C18.45 7.45835 18.85 8.69168 17.625 9.90835L15.5583 11.975C15.2083 12.325 15.0167 13 15.125 13.4833L15.7167 16.0417C16.1833 18.0667 15.1083 18.85 13.3167 17.7917L10.825 16.3167C10.375 16.05 9.63332 16.05 9.17499 16.3167L6.68332 17.7917C4.89999 18.85 3.81665 18.0583 4.28332 16.0417L4.87499 13.4833C4.98332 13 4.79165 12.325 4.44165 11.975L2.37499 9.90835C1.15832 8.69168 1.54999 7.45835 3.24999 7.17501L5.90832 6.73335C6.34999 6.65835 6.88332 6.26668 7.08332 5.85835L8.54999 2.92501C9.34999 1.33335 10.65 1.33335 11.4417 2.92501Z" fill="#FF6A00" stroke="white" stroke-linecap="round" stroke-linejoin="round"/>
  </symbol>

  <symbol
    id="search" 
    xmlns="http://www.w3.org/2000/svg" 
    width="20" 
    height="20" 
    viewBox="0 0 20 20" 
    fill="none">
    <path d="M9.66659 16C13.1644 16 15.9999 13.1644 15.9999 9.66665C15.9999 6.16884 13.1644 3.33331 9.66659 3.33331C6.16878 3.33331 3.33325 6.16884 3.33325 9.66665C3.33325 13.1644 6.16878 16 9.66659 16Z" stroke="white" stroke-width="1.5" stroke-linecap="round" stroke-linejoin="round"/>
    <path d="M16.6666 16.6666L15.3333 15.3333" stroke="white" stroke-width="1.5" stroke-linecap="round" stroke-linejoin="round"/>
  </symbol>

</svg>
